<?xml version="1.0" standalone="no"?>
<!DOCTYPE svg PUBLIC "-//W3C//DTD SVG 20010904//EN"
 "http://www.w3.org/TR/2001/REC-SVG-20010904/DTD/svg10.dtd">
<svg version="1.0" xmlns="http://www.w3.org/2000/svg"
 width="2000.000000pt" height="2000.000000pt" viewBox="0 0 2000.000000 2000.000000"
 preserveAspectRatio="xMidYMid meet">

<g transform="translate(0.000000,2000.000000) scale(0.100000,-0.100000)"
fill="#000000" stroke="none">
<path d="M12290 15030 l0 -1550 1123 2 1122 3 0 1545 0 1545 -1122 3 -1123 2
0 -1550z m2210 0 l0 -1510 -1085 0 -1085 0 0 1510 0 1510 1085 0 1085 0 0
-1510z"/>
<path d="M15310 15640 l0 -940 810 0 810 0 0 940 0 940 -810 0 -810 0 0 -940z
m1585 -5 l0 -900 -775 0 -775 0 -3 890 c-1 490 0 896 3 903 3 10 164 12 777
10 l773 -3 0 -900z"/>
<path d="M15750 15635 l0 -425 370 0 370 0 0 425 0 425 -370 0 -370 0 0 -425z
m700 0 l0 -385 -330 0 -330 0 0 385 0 385 330 0 330 0 0 -385z"/>
<path d="M10673 13680 c-18 -11 -33 -24 -33 -30 0 -5 -14 -10 -30 -10 -23 0
-35 -7 -48 -29 -14 -24 -21 -27 -41 -19 -27 10 -58 3 -83 -19 -15 -13 -19 -13
-40 1 -38 27 -118 15 -118 -18 0 -8 -15 -12 -49 -12 -59 1 -101 -30 -101 -75
0 -23 -6 -30 -35 -39 -42 -14 -70 -59 -61 -101 3 -16 1 -29 -3 -29 -5 0 -23
-12 -40 -26 -34 -28 -42 -73 -17 -93 13 -11 12 -15 -4 -31 -32 -32 -36 -68
-10 -102 19 -26 20 -33 10 -59 -7 -16 -10 -38 -7 -50 3 -12 0 -32 -6 -46 -10
-22 -8 -28 10 -43 20 -16 21 -21 10 -49 -9 -25 -9 -35 1 -49 13 -19 15 -22 28
-67 6 -20 17 -31 31 -33 31 -4 32 -19 36 -352 3 -295 5 -304 51 -412 6 -13 2
-20 -17 -27 -52 -20 -137 -115 -137 -153 0 -2 28 -5 62 -6 140 -6 288 -56 357
-121 l31 -29 48 18 c26 9 59 20 75 24 l27 6 0 -80 c0 -119 15 -166 69 -220 78
-78 191 -91 275 -32 39 27 265 325 266 350 0 22 19 13 34 -17 24 -45 54 -165
62 -241 7 -75 24 -96 24 -30 0 99 46 224 120 323 49 65 158 157 238 200 l53
29 55 -38 c66 -45 116 -103 146 -170 29 -65 37 -209 15 -283 l-15 -51 43 -66
c45 -69 92 -184 99 -244 4 -33 429 -1158 460 -1219 28 -53 123 -316 129 -357
8 -51 -8 -146 -34 -197 -32 -61 -86 -114 -151 -147 l-61 -30 151 0 152 0 0
838 c0 908 -2 941 -55 1112 -126 400 -445 717 -840 835 -49 15 -138 42 -198
61 -104 33 -307 74 -369 74 -30 0 -30 1 -24 38 3 20 6 72 6 114 l0 76 33 11
c48 16 88 61 94 107 4 34 12 43 55 69 83 50 107 103 71 155 -14 20 -15 24 -2
28 8 3 31 22 52 42 43 44 50 91 17 133 l-20 25 29 21 c44 32 65 84 51 126 -6
19 -15 35 -18 35 -4 0 -13 4 -20 8 -10 7 -9 16 3 45 25 61 20 95 -22 136 -37
35 -38 37 -29 83 12 64 -3 98 -42 98 -26 0 -29 3 -24 25 5 27 -12 55 -34 55
-7 0 -24 11 -38 25 -14 14 -36 25 -49 25 -21 0 -26 6 -32 37 -10 55 -54 93
-107 93 -24 0 -53 -6 -63 -14 -14 -10 -25 -11 -38 -4 -10 5 -33 8 -51 7 -21
-2 -39 3 -51 15 -11 11 -29 16 -50 15 -22 -2 -43 5 -66 22 -19 14 -44 31 -56
37 -34 18 -104 14 -140 -8z m587 -1275 c29 -35 2 -118 -61 -190 -25 -29 -34
-33 -50 -25 -25 14 -24 21 10 75 28 45 29 47 13 74 -15 26 -15 30 1 55 20 30
67 36 87 11z"/>
<path d="M16170 12827 l0 -594 227 -6 c124 -4 356 -7 515 -7 l288 0 0 600 0
600 -515 0 -515 0 0 -593z m210 108 l0 -415 -55 0 -55 0 0 415 0 415 55 0 55
0 0 -415z m450 0 l0 -415 -60 0 -60 0 0 415 0 415 60 0 60 0 0 -415z m-456
-517 c18 -52 -44 -89 -86 -51 -21 18 -23 36 -7 64 8 16 19 19 47 17 30 -2 38
-8 46 -30z m434 20 c7 -7 12 -24 12 -38 0 -14 -5 -31 -12 -38 -7 -7 -24 -12
-38 -12 -14 0 -31 5 -38 12 -7 7 -12 24 -12 38 0 14 5 31 12 38 7 7 24 12 38
12 14 0 31 -5 38 -12z"/>
<path d="M13550 12660 l0 -150 90 0 90 0 0 -145 0 -145 798 2 c701 3 797 5
797 18 0 13 -27 15 -172 18 l-173 2 0 100 0 100 176 0 175 0 -3 23 c-3 25 -1
24 -103 26 -73 1 -75 2 -75 26 l0 25 -175 0 -176 0 3 103 3 102 173 3 c164 2
172 3 172 22 0 20 -10 20 -800 20 l-800 0 0 -150z m900 5 l0 -55 -415 0 -415
0 0 55 0 55 415 0 415 0 0 -55z m150 35 c36 -36 16 -90 -35 -90 -24 0 -55 33
-55 57 0 18 37 53 55 53 8 0 24 -9 35 -20z m20 -335 l0 -55 -415 0 -415 0 0
55 0 55 415 0 415 0 0 -55z m158 33 c7 -7 12 -24 12 -38 0 -14 -5 -31 -12 -38
-7 -7 -24 -12 -38 -12 -14 0 -31 5 -38 12 -7 7 -12 24 -12 38 0 14 5 31 12 38
7 7 24 12 38 12 14 0 31 -5 38 -12z"/>
<path d="M11655 11476 c-70 -32 -149 -116 -197 -209 -33 -66 -13 -51 30 21 48
80 135 165 188 182 45 15 111 7 164 -20 45 -23 54 -25 44 -9 -25 41 -167 63
-229 35z"/>
<path d="M11400 10818 c0 -2 45 -122 99 -265 95 -249 99 -263 103 -350 2 -53
-1 -89 -6 -85 -5 3 -7 -5 -4 -16 4 -12 3 -24 -2 -27 -8 -5 -36 -125 -31 -140
1 -5 -1 -7 -5 -3 -4 4 -18 -16 -31 -44 -13 -29 -40 -71 -59 -95 l-35 -43 -139
0 -139 0 -4 28 -4 27 -2 -27 -1 -28 -309 0 -310 0 -4 38 -4 37 -1 -39 -2 -39
-156 6 c-148 5 -157 4 -161 -14 -3 -10 -7 -19 -9 -19 -19 0 -179 60 -258 97
-172 80 -222 70 -459 -90 -112 -75 -147 -96 -147 -84 0 5 -72 567 -100 782
-16 126 -32 235 -35 242 -3 10 -225 13 -1089 13 -597 0 -1087 -4 -1090 -8 -4
-8 67 -635 79 -687 4 -18 13 -20 82 -22 105 -3 190 -44 247 -120 l39 -53 34
58 c43 72 67 97 110 117 42 20 93 7 113 -30 30 -56 -10 -202 -73 -265 -14 -15
-29 -48 -36 -80 -34 -149 -82 -262 -131 -303 -16 -14 -27 -28 -23 -30 5 -3 35
-8 68 -12 121 -15 170 -56 158 -132 l-5 -33 1269 0 1269 0 -18 88 c-37 174
-34 406 7 532 l15 45 802 0 803 0 55 -29 c30 -16 74 -44 98 -63 24 -20 45 -33
48 -30 8 8 -73 67 -139 103 l-61 32 -200 525 c-174 456 -216 559 -216 535z
m-3295 -761 c20 -16 27 -33 28 -60 1 -50 -13 -63 -53 -47 -35 14 -50 37 -50
74 0 60 29 73 75 33z m117 -157 c22 -43 23 -128 4 -175 -22 -51 -55 -68 -126
-63 -72 5 -100 26 -100 74 0 28 14 49 76 119 64 72 81 86 103 83 18 -2 31 -13
43 -38z m1228 -445 c0 -27 -69 -105 -93 -105 -7 0 -15 63 -9 78 3 8 14 18 26
22 24 10 76 13 76 5z m294 -135 c29 -27 69 -56 89 -65 78 -33 192 -10 246 49
35 38 69 35 75 -6 3 -18 10 -56 14 -84 l9 -52 -291 -7 c-160 -3 -340 -5 -401
-3 l-110 3 -3 47 c-3 46 -3 46 35 58 21 7 81 31 133 53 78 33 117 47 148 56 2
1 27 -21 56 -49z"/>
<path d="M10443 10710 c0 -25 2 -35 4 -22 2 12 2 32 0 45 -2 12 -4 2 -4 -23z"/>
<path d="M11282 10720 c0 -14 2 -19 5 -12 2 6 2 18 0 25 -3 6 -5 1 -5 -13z"/>
<path d="M11261 10605 c-8 -48 -11 -88 -9 -91 3 -2 10 34 17 82 8 47 11 87 9
90 -3 2 -10 -34 -17 -81z"/>
<path d="M9785 10593 c10 -29 42 -170 60 -268 8 -49 18 -101 21 -115 3 -18 -3
-12 -21 19 -32 56 -124 171 -136 171 -17 0 -9 -16 22 -46 37 -35 111 -145 133
-197 9 -21 23 -80 32 -130 18 -105 30 -131 19 -42 -23 200 -110 625 -128 625
-5 0 -6 -8 -2 -17z"/>
<path d="M10453 10575 c0 -22 2 -30 4 -17 2 12 2 30 0 40 -3 9 -5 -1 -4 -23z"/>
<path d="M11235 10445 c-3 -31 -5 -59 -2 -61 3 -3 8 20 12 51 3 31 5 59 2 61
-3 3 -8 -20 -12 -51z"/>
<path d="M10463 10425 c0 -33 2 -45 4 -27 2 18 2 45 0 60 -2 15 -4 0 -4 -33z"/>
<path d="M11222 10340 c0 -19 2 -27 5 -17 2 9 2 25 0 35 -3 9 -5 1 -5 -18z"/>
<path d="M10473 10285 c0 -33 2 -45 4 -27 2 18 2 45 0 60 -2 15 -4 0 -4 -33z"/>
<path d="M11200 10210 c-6 -50 -10 -93 -7 -96 2 -2 10 36 17 86 6 50 10 93 7
96 -2 2 -10 -36 -17 -86z"/>
<path d="M10483 10155 c0 -33 2 -45 4 -27 2 18 2 45 0 60 -2 15 -4 0 -4 -33z"/>
<path d="M11175 10035 c-4 -37 -5 -69 -2 -71 2 -3 8 25 12 61 4 37 5 69 2 71
-2 3 -8 -25 -12 -61z"/>
<path d="M10493 10025 c0 -33 2 -45 4 -27 2 18 2 45 0 60 -2 15 -4 0 -4 -33z"/>
<path d="M13070 9650 c0 -187 4 -339 11 -369 14 -65 56 -129 109 -166 l43 -30
178 -3 c204 -4 226 2 296 82 43 49 63 101 63 165 l0 41 43 0 c55 0 106 28 129
71 15 29 18 58 18 205 0 161 -1 173 -23 205 -27 41 -79 69 -129 69 -34 0 -38
3 -38 25 l0 25 -350 0 -350 0 0 -320z m778 164 c21 -15 22 -21 22 -169 0 -172
-5 -185 -66 -185 l-34 0 0 178 c0 98 3 182 7 185 11 12 48 7 71 -9z"/>
<path d="M10503 9895 c0 -33 2 -45 4 -27 2 18 2 45 0 60 -2 15 -4 0 -4 -33z"/>
<path d="M11162 9920 c0 -19 2 -27 5 -17 2 9 2 25 0 35 -3 9 -5 1 -5 -18z"/>
<path d="M11153 9845 c0 -22 2 -30 4 -17 2 12 2 30 0 40 -3 9 -5 -1 -4 -23z"/>
<path d="M11830 9767 c0 -9 110 -39 123 -34 11 4 -20 14 -95 33 -16 3 -28 4
-28 1z"/>
<path d="M11810 9683 c14 -9 42 -30 63 -46 20 -16 37 -25 37 -20 0 12 -96 83
-112 83 -7 0 -1 -8 12 -17z"/>
<path d="M6826 9661 c-11 -17 20 -60 52 -72 31 -12 92 -3 92 13 0 6 -11 8 -30
4 -40 -8 -76 7 -93 40 -9 18 -17 23 -21 15z"/>
<path d="M7150 9499 c0 -6 13 -24 30 -40 25 -26 36 -30 72 -27 23 2 43 8 45
15 3 8 -8 10 -36 6 -36 -5 -44 -2 -70 26 -31 33 -41 38 -41 20z"/>
<path d="M5150 6445 l0 -2375 75 0 75 0 0 2375 0 2375 -75 0 -75 0 0 -2375z"/>
<path d="M10380 8810 c-407 -5 -415 -5 -415 -25 -1 -11 -5 -26 -9 -34 -21 -34
-14 -227 8 -214 6 4 4 -1 -4 -12 -14 -16 -13 -17 5 -12 104 33 555 127 606
127 10 0 19 4 19 9 0 5 9 7 20 4 11 -3 32 -1 47 4 15 5 37 7 48 5 20 -3 21 -8
17 -160 -3 -91 1 -189 7 -232 15 -96 52 -253 58 -247 2 3 -8 58 -23 124 -25
104 -28 138 -28 293 -1 224 -1 225 66 235 76 10 120 16 141 16 11 0 15 5 10
12 -4 7 0 7 10 -2 13 -10 29 -11 69 -4 131 22 742 -2 841 -33 10 -3 16 -1 15
4 -5 17 6 17 32 0 32 -20 176 -52 191 -42 8 5 9 3 4 -6 -6 -10 -3 -12 13 -8
12 4 20 2 17 -2 -3 -5 5 -10 17 -12 19 -3 24 -13 34 -68 53 -280 30 -496 -69
-642 -44 -66 -71 -118 -63 -125 2 -2 20 12 40 33 163 167 204 462 114 806 -30
117 -19 141 20 41 89 -228 109 -440 60 -642 -51 -212 -334 -433 -874 -685 -99
-46 -239 -107 -313 -137 l-133 -54 838 -3 c462 -2 858 0 881 3 53 8 117 54
143 104 18 37 20 59 20 286 0 226 -2 249 -20 285 -21 41 -67 82 -113 99 l-27
11 0 454 0 454 -952 -1 c-524 -1 -1140 -4 -1368 -7z"/>
<path d="M14680 8603 l0 -218 -63 -18 c-280 -82 -516 -290 -598 -527 -32 -91
-33 -228 -2 -286 43 -82 134 -134 209 -119 l33 6 -6 -68 c-6 -82 7 -135 50
-199 66 -99 214 -137 330 -86 l47 21 0 -1520 0 -1519 78 0 77 0 0 1502 0 1503
46 5 c56 7 111 46 129 92 8 18 14 34 16 36 1 2 25 -4 53 -14 76 -24 191 -16
264 20 61 29 117 85 117 116 0 11 3 20 6 20 25 0 138 -67 164 -97 81 -92 136
-280 170 -586 25 -219 48 -543 57 -776 l6 -181 -298 0 -298 0 6 -257 c3 -159
11 -302 21 -371 67 -460 239 -708 546 -789 81 -22 299 -24 380 -4 112 27 199
78 285 165 152 154 238 383 275 726 10 93 6 502 -5 519 -4 8 -100 11 -298 11
-161 0 -349 3 -418 7 l-126 6 -22 141 c-34 224 -43 345 -44 591 0 310 32 545
106 776 l24 76 -24 84 c-13 46 -33 99 -44 117 -10 18 -19 41 -19 51 0 10 -8
27 -17 39 -10 11 -47 62 -83 114 -131 188 -328 358 -472 408 -81 27 -187 36
-261 20 -48 -10 -57 -15 -51 -28 58 -139 77 -300 50 -415 -21 -89 -55 -167
-72 -167 -12 0 -12 6 2 32 59 113 76 247 50 378 -20 99 -49 170 -69 170 -8 0
-42 -18 -76 -40 -77 -50 -74 -49 -76 -22 -1 15 4 22 15 22 9 0 41 14 71 30 73
41 170 70 232 70 l50 0 -19 21 c-10 12 -41 33 -69 48 -45 23 -62 26 -163 28
-63 1 -116 4 -119 7 -12 11 53 18 140 14 106 -5 162 -25 225 -82 26 -24 59
-42 96 -51 73 -19 176 -72 252 -128 69 -52 193 -179 243 -249 19 -27 36 -46
38 -44 2 2 -22 50 -53 107 -140 256 -285 415 -460 503 -109 54 -172 68 -334
72 l-145 4 -3 200 -2 200 -75 0 -75 0 0 -217z m0 -553 c0 -5 -6 -10 -14 -10
-28 0 -173 -80 -234 -129 -65 -53 -102 -69 -62 -26 77 82 310 206 310 165z
m-56 -272 c-69 -99 -72 -103 -80 -96 -6 7 32 70 90 147 62 83 54 43 -10 -51z"/>
<path d="M12099 8470 c-14 -8 -13 -19 3 -112 9 -57 24 -132 32 -168 l14 -65 1
105 c0 90 -17 231 -30 244 -2 3 -11 1 -20 -4z"/>
<path d="M8605 8399 c-187 -5 -366 -13 -398 -18 -151 -25 -291 -143 -336 -282
-6 -20 -85 -489 -174 -1042 -179 -1102 -161 -1024 -246 -1078 -41 -27 -45 -27
-73 -13 -44 23 -154 44 -228 44 -162 0 -326 -71 -395 -169 -38 -56 -33 -82 26
-135 119 -107 337 -192 581 -227 84 -12 110 -29 46 -29 -51 0 -157 -30 -235
-65 -87 -40 -173 -105 -241 -181 -49 -55 -144 -211 -148 -243 -1 -9 -9 -45
-18 -81 -23 -94 -21 -257 4 -356 67 -263 274 -468 540 -535 71 -18 104 -21
210 -17 106 4 138 10 213 35 108 38 180 81 263 156 206 189 289 499 205 771
-53 172 -174 324 -333 419 -34 22 -54 36 -43 34 87 -23 379 -78 397 -75 27 4
36 39 15 56 -7 7 -60 22 -117 34 -84 18 -99 24 -84 33 46 25 133 125 162 186
35 75 72 210 72 267 0 42 375 1591 388 1603 4 4 180 10 390 14 364 6 384 6
380 -11 -2 -12 -82 -55 -260 -138 -142 -67 -279 -137 -306 -158 -59 -43 -126
-140 -147 -211 -8 -28 -15 -81 -15 -119 0 -60 102 -716 306 -1973 31 -187 56
-354 57 -371 1 -34 -47 -122 -95 -174 -21 -24 -35 -30 -67 -30 -109 0 -309
-100 -385 -193 -46 -57 -85 -136 -92 -190 -10 -70 23 -93 175 -118 123 -20
313 -2 495 47 50 13 268 65 485 114 216 50 397 92 401 95 5 3 12 -9 15 -27 25
-116 160 -158 242 -75 29 28 37 45 40 84 5 52 -10 97 -42 123 -15 12 -11 17
37 48 210 134 486 227 735 248 l81 7 6 -59 c3 -33 8 -116 12 -186 6 -127 6
-128 -20 -158 -65 -78 -50 -209 28 -247 46 -21 84 -3 114 57 35 70 24 149 -27
197 -21 19 -21 23 -11 184 5 90 10 174 10 187 0 22 2 23 63 17 206 -22 437
-92 655 -200 l153 -76 -27 -34 c-34 -46 -41 -108 -17 -155 72 -139 283 -82
270 73 -5 61 -30 95 -93 127 -27 14 -92 54 -144 89 -232 154 -523 267 -746
287 l-74 7 0 1038 0 1039 -95 0 -95 0 0 -1034 0 -1035 -47 -6 c-114 -14 -234
-38 -313 -61 -163 -49 -377 -164 -510 -274 -25 -21 -61 -43 -80 -49 -43 -14
-61 -28 -84 -63 -15 -23 -21 -25 -36 -16 -14 9 -46 6 -147 -15 -156 -33 -156
-33 -112 -3 107 73 149 235 115 446 -16 102 -209 2011 -204 2015 2 1 143 67
313 147 171 79 309 150 308 155 -1 6 -5 26 -7 44 -15 103 -102 281 -187 384
-61 74 -121 135 -133 135 -4 0 -27 13 -50 30 -51 34 -186 90 -220 90 -12 0
-26 3 -29 6 -9 9 258 136 613 291 l45 20 -85 41 c-108 51 -188 82 -326 126
-131 41 -164 49 -164 39 0 -7 34 -19 158 -55 l32 -10 -19 -27 c-11 -15 -37
-36 -58 -47 -42 -21 -36 -18 -118 -80 -72 -55 -50 -52 82 12 65 31 104 44 135
44 l43 0 -30 -24 c-75 -61 -243 -144 -363 -179 l-52 -16 -27 47 c-15 26 -41
67 -58 92 -16 25 -34 52 -40 61 -46 73 -83 126 -137 197 -34 46 -67 92 -73
102 -5 11 -46 62 -90 114 -74 88 -83 95 -115 94 -19 -1 -188 -5 -375 -9z
m1379 -410 c21 -10 23 -14 13 -30 -9 -14 -24 -19 -54 -19 -49 0 -50 2 -25 35
19 28 31 30 66 14z m101 -39 c17 -7 15 -9 -12 -9 -18 -1 -33 4 -33 9 0 12 17
12 45 0z m73 -41 c100 -21 96 -28 -55 -93 -76 -33 -221 -99 -323 -147 l-185
-88 -22 37 c-13 20 -23 40 -23 43 0 4 42 21 93 39 132 48 257 114 318 170 48
44 59 49 101 50 26 0 69 -5 96 -11z"/>
<path d="M10060 7880 c0 -6 32 -10 75 -10 43 0 75 4 75 10 0 6 -32 10 -75 10
-43 0 -75 -4 -75 -10z"/>
<path d="M11963 8403 c-8 -3 -13 -22 -13 -45 0 -40 0 -41 20 -23 31 28 25 80
-7 68z"/>
<path d="M9976 8377 c3 -10 9 -15 12 -12 3 3 0 11 -7 18 -10 9 -11 8 -5 -6z"/>
<path d="M10066 8294 c-4 -9 -1 -23 6 -31 10 -12 14 -11 30 9 9 13 18 26 18
31 0 14 -48 7 -54 -9z"/>
<path d="M10246 8251 c-32 -33 -33 -41 -3 -40 12 0 32 13 44 28 22 28 22 29 4
34 -13 3 -29 -5 -45 -22z"/>
<path d="M11710 8249 c0 -6 -11 -33 -25 -61 -30 -60 -30 -58 -5 -58 15 0 28
14 45 53 30 63 31 77 5 77 -11 0 -20 -5 -20 -11z"/>
<path d="M10414 8189 c-16 -17 -16 -22 -4 -29 21 -13 25 -13 44 9 17 18 17 20
-2 30 -15 8 -23 6 -38 -10z"/>
<path d="M11408 8121 c-103 -98 -109 -101 -258 -160 -135 -53 -147 -61 -94
-61 45 0 200 55 271 96 47 27 128 114 162 174 12 22 20 40 17 40 -3 0 -47 -40
-98 -89z"/>
<path d="M10702 8027 c-27 -12 -28 -24 -3 -32 21 -6 73 14 66 25 -8 14 -40 17
-63 7z"/>
<path d="M10835 7978 l-40 -21 28 -8 c21 -6 42 -1 80 17 30 14 44 24 32 24
-11 0 -29 2 -40 5 -11 3 -38 -5 -60 -17z"/>
</g>
</svg>
