<svg xmlns="http://www.w3.org/2000/svg" version="1.1" xmlns:xlink="http://www.w3.org/1999/xlink" xmlns:svgjs="http://svgjs.dev/svgjs" width="2000" height="424" viewBox="0 0 2000 424"><g transform="matrix(1,0,0,1,-1.2121212121212466,-0.6210325674208264)"><svg viewBox="0 0 396 84" data-background-color="#010536" preserveAspectRatio="xMidYMid meet" height="424" width="2000" xmlns="http://www.w3.org/2000/svg" xmlns:xlink="http://www.w3.org/1999/xlink"><g id="tight-bounds" transform="matrix(1,0,0,1,0.2400000000000091,0.42900068781113987)"><svg viewBox="0 0 395.52 83.14199862437772" height="83.14199862437772" width="395.52"><g><svg viewBox="0 0 513.3800488003521 107.91728183439989" height="83.14199862437772" width="395.52"><g transform="matrix(1,0,0,1,117.8600488003521,14.9147618164764)"><svg viewBox="0 0 395.52 78.08775820144709" height="78.08775820144709" width="395.52"><g id="textblocktransform"><svg viewBox="0 0 395.52 78.08775820144709" height="78.08775820144709" width="395.52" id="textblock"><g><svg viewBox="0 0 395.52 42.11680546075085" height="42.11680546075085" width="395.52"><g transform="matrix(1,0,0,1,0,0)"><svg width="395.52" viewBox="2.08 -31.88 305.18 32.51" height="42.11680546075085" data-palette-color="#fbfbf8"><path d="M18.4 0.63L18.4 0.63Q15.03 0.63 12.07-0.64 9.1-1.91 6.86-4.13 4.62-6.35 3.35-9.31 2.08-12.26 2.08-15.63L2.08-15.63Q2.08-18.99 3.35-21.94 4.62-24.9 6.86-27.12 9.1-29.34 12.07-30.61 15.03-31.88 18.4-31.88L18.4-31.88Q21.74-31.88 24.65-30.64 27.57-29.41 29.79-27.26L29.79-27.26 28.65-22.47Q27.05-25.03 24.36-26.58 21.67-28.13 18.4-28.13L18.4-28.13Q14.97-28.13 12.2-26.44 9.44-24.76 7.81-21.93 6.18-19.1 6.18-15.63L6.18-15.63Q6.18-12.19 7.81-9.34 9.44-6.49 12.2-4.81 14.97-3.13 18.4-3.13L18.4-3.13Q21.7-3.13 24.38-4.69 27.05-6.25 28.65-8.78L28.65-8.78 29.79-3.99Q27.57-1.88 24.65-0.63 21.74 0.63 18.4 0.63ZM44.09 0.42L44.09 0.42Q41.07 0.42 38.57-1.04 36.07-2.5 34.6-4.97 33.12-7.43 33.12-10.42L33.12-10.42Q33.12-13.44 34.6-15.89 36.07-18.33 38.57-19.79 41.07-21.25 44.09-21.25L44.09-21.25Q47.15-21.25 49.63-19.79 52.12-18.33 53.59-15.89 55.07-13.44 55.07-10.42L55.07-10.42Q55.07-7.43 53.59-4.97 52.12-2.5 49.63-1.04 47.15 0.42 44.09 0.42ZM44.09-3.13L44.09-3.13Q46.11-3.13 47.74-4.11 49.37-5.1 50.34-6.75 51.32-8.4 51.32-10.42L51.32-10.42Q51.32-12.43 50.34-14.08 49.37-15.73 47.74-16.72 46.11-17.71 44.09-17.71L44.09-17.71Q42.08-17.71 40.45-16.72 38.82-15.73 37.84-14.08 36.87-12.43 36.87-10.42L36.87-10.42Q36.87-8.4 37.84-6.75 38.82-5.1 40.45-4.11 42.08-3.13 44.09-3.13ZM64.02 0L60.27 0 60.27-20.83 63.75-20.83 63.75-17.47Q64.89-19.31 66.71-20.28 68.54-21.25 70.65-21.25L70.65-21.25Q72.88-21.25 74.77-20.16 76.66-19.06 77.84-17 79.02-14.93 79.02-11.98L79.02-11.98 79.02 0 75.27 0 75.27-11.46Q75.27-13.92 73.8-15.82 72.32-17.71 69.65-17.71L69.65-17.71Q67.46-17.71 65.74-16.13 64.02-14.55 64.02-11.56L64.02-11.56 64.02 0ZM91.45 0L87.7 0 87.7-17.71 82.98-17.71 82.98-20.83 87.81-20.83 87.81-27.78 91.35-27.78 91.35-20.83 96.52-20.83 96.52-17.71 91.45-17.71 91.45 0ZM104.64 0L100.89 0 100.89-20.83 104.64-20.83 104.64 0ZM102.77-24.58L102.77-24.58Q101.73-24.58 101-25.31 100.27-26.04 100.27-27.08L100.27-27.08Q100.27-28.16 101-28.87 101.73-29.58 102.77-29.58L102.77-29.58Q103.84-29.58 104.56-28.87 105.27-28.16 105.27-27.08L105.27-27.08Q105.27-26.04 104.56-25.31 103.84-24.58 102.77-24.58ZM115.06 0L111.31 0 111.31-20.83 114.78-20.83 114.78-17.47Q115.93-19.31 117.75-20.28 119.57-21.25 121.69-21.25L121.69-21.25Q123.91-21.25 125.8-20.16 127.7-19.06 128.88-17 130.06-14.93 130.06-11.98L130.06-11.98 130.06 0 126.31 0 126.31-11.46Q126.31-13.92 124.83-15.82 123.36-17.71 120.68-17.71L120.68-17.71Q118.49-17.71 116.78-16.13 115.06-14.55 115.06-11.56L115.06-11.56 115.06 0ZM144.26 0.42L144.26 0.42Q142.07 0.42 140.16-0.68 138.25-1.77 137.07-3.85 135.89-5.94 135.89-8.85L135.89-8.85 135.89-20.83 139.64-20.83 139.64-9.38Q139.64-6.91 141.11-5.02 142.59-3.13 145.26-3.13L145.26-3.13Q147.45-3.13 149.17-4.7 150.89-6.28 150.89-9.27L150.89-9.27 150.89-20.83 154.64-20.83 154.64 0 151.17 0 151.17-3.37Q150.02-1.53 148.2-0.56 146.37 0.42 144.26 0.42ZM169.25 0.42L169.25 0.42Q167.07 0.42 165.16-0.68 163.25-1.77 162.07-3.85 160.89-5.94 160.89-8.85L160.89-8.85 160.89-20.83 164.64-20.83 164.64-9.38Q164.64-6.91 166.11-5.02 167.59-3.13 170.26-3.13L170.26-3.13Q172.45-3.13 174.17-4.7 175.89-6.28 175.89-9.27L175.89-9.27 175.89-20.83 179.64-20.83 179.64 0 176.16 0 176.16-3.37Q175.02-1.53 173.19-0.56 171.37 0.42 169.25 0.42ZM190.05 0L186.3 0 186.3-20.83 189.77-20.83 189.77-17.85Q190.92-19.55 192.67-20.4 194.42-21.25 196.37-21.25L196.37-21.25Q198.49-21.25 200.26-20.26 202.03-19.27 203.11-17.5L203.11-17.5Q204.32-19.38 206.25-20.31 208.17-21.25 210.33-21.25L210.33-21.25Q212.69-21.25 214.65-20.14 216.61-19.03 217.78-17.03 218.94-15.03 218.94-12.33L218.94-12.33 218.94 0 215.19 0 215.19-11.88Q215.19-14.72 213.57-16.2 211.96-17.67 209.84-17.67L209.84-17.67Q208.52-17.67 207.29-17.08 206.06-16.49 205.28-15.24 204.49-13.99 204.49-11.98L204.49-11.98 204.49 0 200.74 0 200.74-11.88Q200.74-13.85 199.96-15.14 199.18-16.42 197.95-17.07 196.72-17.71 195.4-17.71L195.4-17.71Q194.11-17.71 192.88-17.12 191.65-16.53 190.85-15.28 190.05-14.03 190.05-11.98L190.05-11.98 190.05 0ZM250.67 0.63L250.67 0.63Q247.3 0.63 244.33-0.64 241.36-1.91 239.12-4.13 236.88-6.35 235.62-9.31 234.35-12.26 234.35-15.63L234.35-15.63Q234.35-18.99 235.62-21.94 236.88-24.9 239.12-27.12 241.36-29.34 244.33-30.61 247.3-31.88 250.67-31.88L250.67-31.88Q254-31.88 256.92-30.64 259.84-29.41 262.06-27.26L262.06-27.26 260.91-22.47Q259.32-25.03 256.62-26.58 253.93-28.13 250.67-28.13L250.67-28.13Q247.23-28.13 244.47-26.44 241.71-24.76 240.08-21.93 238.45-19.1 238.45-15.63L238.45-15.63Q238.45-12.19 240.08-9.34 241.71-6.49 244.47-4.81 247.23-3.13 250.67-3.13L250.67-3.13Q253.97-3.13 256.64-4.69 259.32-6.25 260.91-8.78L260.91-8.78 262.06-3.99Q259.84-1.88 256.92-0.63 254 0.63 250.67 0.63ZM274.63 0.42L274.63 0.42Q271.85 0.42 269.61-0.69 267.37-1.81 266.05-3.4L266.05-3.4 267.19-8.19Q268.17-6.25 270.11-4.69 272.06-3.13 274.76-3.13L274.76-3.13Q277.23-3.13 278.84-4.69 280.46-6.25 280.46-8.54L280.46-8.54Q280.46-10.21 279.66-11.28 278.86-12.36 277.85-12.99 276.85-13.61 276.26-13.89L276.26-13.89 272.44-15.83Q271.53-16.32 270.2-17.19 268.86-18.06 267.85-19.58 266.85-21.11 266.85-23.54L266.85-23.54Q266.85-25.9 267.94-27.74 269.03-29.58 271-30.63 272.96-31.67 275.49-31.67L275.49-31.67Q277.99-31.67 279.9-30.78 281.81-29.9 282.89-28.96L282.89-28.96 281.74-24.17Q280.88-25.63 279.17-26.91 277.47-28.19 275.32-28.19L275.32-28.19Q273.24-28.19 271.99-26.96 270.74-25.73 270.74-23.92L270.74-23.92Q270.74-22.53 271.38-21.63 272.02-20.73 272.84-20.21 273.65-19.69 274.17-19.41L274.17-19.41 278.06-17.47Q278.76-17.12 279.82-16.49 280.88-15.87 281.92-14.84 282.96-13.82 283.65-12.34 284.35-10.87 284.35-8.78L284.35-8.78Q284.35-6.11 283.08-4.03 281.81-1.94 279.63-0.76 277.44 0.42 274.63 0.42ZM297.54 0.42L297.54 0.42Q294.76 0.42 292.52-0.69 290.28-1.81 288.96-3.4L288.96-3.4 290.11-8.19Q291.08-6.25 293.03-4.69 294.97-3.13 297.68-3.13L297.68-3.13Q300.14-3.13 301.76-4.69 303.37-6.25 303.37-8.54L303.37-8.54Q303.37-10.21 302.57-11.28 301.78-12.36 300.77-12.99 299.76-13.61 299.17-13.89L299.17-13.89 295.35-15.83Q294.45-16.32 293.11-17.19 291.78-18.06 290.77-19.58 289.76-21.11 289.76-23.54L289.76-23.54Q289.76-25.9 290.86-27.74 291.95-29.58 293.91-30.63 295.87-31.67 298.41-31.67L298.41-31.67Q300.91-31.67 302.82-30.78 304.73-29.9 305.8-28.96L305.8-28.96 304.66-24.17Q303.79-25.63 302.09-26.91 300.39-28.19 298.23-28.19L298.23-28.19Q296.15-28.19 294.9-26.96 293.65-25.73 293.65-23.92L293.65-23.92Q293.65-22.53 294.29-21.63 294.94-20.73 295.75-20.21 296.57-19.69 297.09-19.41L297.09-19.41 300.98-17.47Q301.67-17.12 302.73-16.49 303.79-15.87 304.83-14.84 305.87-13.82 306.57-12.34 307.26-10.87 307.26-8.78L307.26-8.78Q307.26-6.11 305.99-4.03 304.73-1.94 302.54-0.76 300.35 0.42 297.54 0.42Z" opacity="1" transform="matrix(1,0,0,1,0,0)" fill="#fbfbf8" class="wordmark-text-0" data-fill-palette-color="primary" id="text-0"></path></svg></g></svg></g><g transform="matrix(1,0,0,1,210.58471465508106,52.05957242670306)"><svg viewBox="0 0 184.93528534491892 26.028185774744028" height="26.028185774744028" width="184.93528534491892"><g transform="matrix(1,0,0,1,0,0)"><svg width="184.93528534491892" viewBox="1.85 -31.7 266.76 37.55" height="26.028185774744028" data-palette-color="#fbfbf8"><path d="M9.15 0.35L9.15 0.35Q6.9 0.35 5.28-0.45 3.65-1.25 2.75-3.13 1.85-5 1.85-8.35L1.85-8.35 1.85-10Q2.65-10 3.48-10 4.3-10 5.05-10L5.05-10 5.05-8.15Q5.05-5.65 5.58-4.28 6.1-2.9 7.03-2.35 7.95-1.8 9.15-1.8L9.15-1.8Q11.1-1.8 12.33-3.03 13.55-4.25 13.55-7.4L13.55-7.4Q13.55-9.65 12.9-10.78 12.25-11.9 10.9-12.58 9.55-13.25 7.6-14.05L7.6-14.05Q6-14.7 4.73-15.63 3.45-16.55 2.75-18.05 2.05-19.55 2.05-21.85L2.05-21.85Q2.05-24.45 2.75-26.18 3.45-27.9 5.05-28.75 6.65-29.6 9.3-29.6L9.3-29.6Q12.75-29.6 14.63-27.88 16.5-26.15 16.5-23L16.5-23 16.5-19.75Q15.75-19.75 14.98-19.75 14.2-19.75 13.4-19.75L13.4-19.75 13.4-22.25Q13.4-24.65 12.38-25.88 11.35-27.1 9.35-27.1L9.35-27.1Q7.15-27.1 6.18-25.83 5.2-24.55 5.2-21.95L5.2-21.95Q5.2-20 5.95-18.88 6.7-17.75 7.9-17.13 9.1-16.5 10.45-16L10.45-16Q12.7-15.15 14.1-14.23 15.5-13.3 16.15-11.85 16.8-10.4 16.8-7.8L16.8-7.8Q16.8-4.75 15.83-2.98 14.85-1.2 13.13-0.43 11.4 0.35 9.15 0.35ZM24.4 0L21.35 0 21.35-24.75 24.4-24.75 24.4 0ZM22.9-27.8L22.9-27.8Q22.15-27.8 21.62-28.33 21.1-28.85 21.1-29.55L21.1-29.55Q21.1-30.3 21.62-30.78 22.15-31.25 22.9-31.25L22.9-31.25Q23.6-31.25 24.15-30.78 24.7-30.3 24.7-29.55L24.7-29.55Q24.7-28.85 24.15-28.33 23.6-27.8 22.9-27.8ZM32.8 0L29.7 0 29.7-24.75 32.3-24.75 32.64-22Q33.2-23.45 34.47-24.3 35.74-25.15 37.59-25.15L37.59-25.15Q40.49-25.15 41.67-23.95 42.84-22.75 42.89-20.45L42.89-20.45 42.34-20.4Q42.84-22.55 44.27-23.85 45.7-25.15 47.95-25.15L47.95-25.15Q51.05-25.15 52.17-23.7 53.3-22.25 53.3-19.25L53.3-19.25 53.3 0 50.2 0 50.2-18.7Q50.2-21.1 49.47-21.98 48.75-22.85 47-22.85L47-22.85Q45.34-22.85 44.24-21.88 43.14-20.9 43.05-19.45L43.05-19.45 43.05 0 39.95 0 39.95-19.1Q39.95-21.15 39.22-22 38.49-22.85 36.64-22.85L36.64-22.85Q34.95-22.85 34.07-22.05 33.2-21.25 32.8-20.15L32.8-20.15 32.8 0ZM61.24 5.8L58.19 5.8 58.19-24.75 61.09-24.75 61.19-22.55Q61.64-23.6 62.64-24.35 63.64-25.1 65.94-25.1L65.94-25.1Q68.29-25.1 69.54-24.3 70.79-23.5 71.29-22.1 71.79-20.7 71.79-18.85L71.79-18.85 71.79-6.65Q71.79-4.6 71.34-3 70.89-1.4 69.64-0.53 68.39 0.35 65.94 0.35L65.94 0.35Q64.04 0.35 62.92-0.25 61.79-0.85 61.24-1.75L61.24-1.75 61.24 5.8ZM64.99-1.55L64.99-1.55Q66.39-1.55 67.14-1.95 67.89-2.35 68.24-3.03 68.59-3.7 68.64-4.53 68.69-5.35 68.69-6.3L68.69-6.3 68.69-18.35Q68.69-19.3 68.64-20.13 68.59-20.95 68.24-21.65 67.89-22.35 67.14-22.75 66.39-23.15 64.99-23.15L64.99-23.15Q63.59-23.15 62.84-22.65 62.09-22.15 61.74-21.33 61.39-20.5 61.34-19.55 61.29-18.6 61.29-17.75L61.29-17.75 61.29-5.95Q61.29-4.75 61.52-3.73 61.74-2.7 62.52-2.13 63.29-1.55 64.99-1.55ZM79.49 0L76.44 0 76.44-31.7 79.49-31.7 79.49 0ZM87.84 0L84.79 0 84.79-24.75 87.84-24.75 87.84 0ZM86.34-27.8L86.34-27.8Q85.59-27.8 85.06-28.33 84.54-28.85 84.54-29.55L84.54-29.55Q84.54-30.3 85.06-30.78 85.59-31.25 86.34-31.25L86.34-31.25Q87.04-31.25 87.59-30.78 88.14-30.3 88.14-29.55L88.14-29.55Q88.14-28.85 87.59-28.33 87.04-27.8 86.34-27.8ZM96.23 0L93.19 0 93.19-21.85 91.64-21.85 91.64-23.8 93.19-23.8 93.19-26.8Q93.19-28.15 93.51-29.1 93.83-30.05 94.44-30.63 95.03-31.2 95.86-31.45 96.69-31.7 97.69-31.7L97.69-31.7Q98.48-31.7 99.31-31.68 100.14-31.65 100.84-31.58 101.53-31.5 101.84-31.5L101.84-31.5 101.84-29.75Q101.28-29.85 100.53-29.93 99.78-30 98.73-30L98.73-30Q97.48-30 96.86-29.28 96.23-28.55 96.23-26.7L96.23-26.7 96.23-23.8 101.84-23.8 101.84-21.85 96.23-21.85 96.23 0ZM104.78 5.85L104.78 5.85Q103.73 5.85 102.91 5.7 102.08 5.55 101.63 5.45L101.63 5.45 101.63 3.6Q101.78 3.7 102.31 3.8 102.83 3.9 103.53 3.9L103.53 3.9Q104.28 3.9 105.21 3.65 106.13 3.4 106.73 2.25L106.73 2.25Q107.03 1.75 107.41 1.1 107.78 0.45 107.58-0.4L107.58-0.4 101.88-24.75 105.08-24.75 109.63-3.15 109.58-3.15 113.98-24.75 116.93-24.75 111.53-0.95Q110.78 2.5 109.18 4.17 107.58 5.85 104.78 5.85ZM122.93 0L119.88 0 119.88-24.75 122.93-24.75 122.93 0ZM121.43-27.8L121.43-27.8Q120.68-27.8 120.16-28.33 119.63-28.85 119.63-29.55L119.63-29.55Q119.63-30.3 120.16-30.78 120.68-31.25 121.43-31.25L121.43-31.25Q122.13-31.25 122.68-30.78 123.23-30.3 123.23-29.55L123.23-29.55Q123.23-28.85 122.68-28.33 122.13-27.8 121.43-27.8ZM131.33 0L128.23 0 128.23-24.75 130.78-24.75 131.18-22.1Q131.58-23.6 133.03-24.4 134.48-25.2 136.03-25.2L136.03-25.2Q138.68-25.2 139.9-24.28 141.13-23.35 141.48-21.88 141.83-20.4 141.83-18.65L141.83-18.65 141.83 0 138.73 0 138.73-18.2Q138.73-19.1 138.68-19.95 138.63-20.8 138.3-21.48 137.98-22.15 137.23-22.55 136.48-22.95 135.03-22.95L135.03-22.95Q133.78-22.95 133-22.48 132.23-22 131.85-21.38 131.48-20.75 131.33-20.2L131.33-20.2 131.33 0ZM152.43 5.85L152.43 5.85Q151.88 5.85 151.13 5.8 150.38 5.75 149.65 5.7 148.93 5.65 148.4 5.58 147.88 5.5 147.73 5.45L147.73 5.45 147.73 3.65Q148.33 3.7 149.45 3.85 150.58 4 151.48 4L151.48 4Q152.18 4 153.03 3.9 153.88 3.8 154.7 3.35 155.53 2.9 156.05 1.85 156.58 0.8 156.58-1.05L156.58-1.05 156.58-4.45Q156.28-3.5 155.65-2.75 155.03-2 154.03-1.58 153.03-1.15 151.58-1.15L151.58-1.15Q150.63-1.15 149.65-1.35 148.68-1.55 147.88-2.18 147.08-2.8 146.6-4.13 146.13-5.45 146.13-7.7L146.13-7.7 146.13-19.05Q146.13-22.35 147.43-23.8 148.73-25.25 151.63-25.25L151.63-25.25Q152.93-25.25 154-24.9 155.08-24.55 155.83-23.85 156.58-23.15 156.98-22.1L156.98-22.1 156.43-22.1 156.93-24.75 159.63-24.75 159.63-2.1Q159.63-0.15 159.15 1.33 158.68 2.8 157.78 3.83 156.88 4.85 155.53 5.35 154.18 5.85 152.43 5.85ZM152.68-3.15L152.68-3.15Q154.33-3.15 155.15-3.98 155.98-4.8 156.25-6.08 156.53-7.35 156.53-8.65L156.53-8.65 156.53-20.75Q156.38-21.2 155.95-21.75 155.53-22.3 154.75-22.7 153.98-23.1 152.68-23.1L152.68-23.1Q150.83-23.1 150.03-22.2 149.23-21.3 149.23-18.9L149.23-18.9 149.23-6.95Q149.23-5.65 149.58-4.85 149.93-4.05 150.5-3.7 151.08-3.35 151.68-3.25 152.28-3.15 152.68-3.15ZM180.32 0.35L180.32 0.35Q178.07 0.35 176.45-0.45 174.82-1.25 173.92-3.13 173.02-5 173.02-8.35L173.02-8.35 173.02-10Q173.82-10 174.65-10 175.47-10 176.22-10L176.22-10 176.22-8.15Q176.22-5.65 176.75-4.28 177.27-2.9 178.2-2.35 179.12-1.8 180.32-1.8L180.32-1.8Q182.27-1.8 183.5-3.03 184.72-4.25 184.72-7.4L184.72-7.4Q184.72-9.65 184.07-10.78 183.42-11.9 182.07-12.58 180.72-13.25 178.77-14.05L178.77-14.05Q177.17-14.7 175.9-15.63 174.62-16.55 173.92-18.05 173.22-19.55 173.22-21.85L173.22-21.85Q173.22-24.45 173.92-26.18 174.62-27.9 176.22-28.75 177.82-29.6 180.47-29.6L180.47-29.6Q183.92-29.6 185.8-27.88 187.67-26.15 187.67-23L187.67-23 187.67-19.75Q186.92-19.75 186.15-19.75 185.37-19.75 184.57-19.75L184.57-19.75 184.57-22.25Q184.57-24.65 183.55-25.88 182.52-27.1 180.52-27.1L180.52-27.1Q178.32-27.1 177.35-25.83 176.37-24.55 176.37-21.95L176.37-21.95Q176.37-20 177.12-18.88 177.87-17.75 179.07-17.13 180.27-16.5 181.62-16L181.62-16Q183.87-15.15 185.27-14.23 186.67-13.3 187.32-11.85 187.97-10.4 187.97-7.8L187.97-7.8Q187.97-4.75 187-2.98 186.02-1.2 184.3-0.43 182.57 0.35 180.32 0.35ZM197.87 0.05L197.87 0.05Q196.77 0.05 195.87-0.2 194.97-0.45 194.32-1.03 193.67-1.6 193.32-2.53 192.97-3.45 192.97-4.85L192.97-4.85 192.97-22.8 190.77-22.8 190.77-24.4 193.17-24.75 193.72-29.4 196.07-29.4 196.07-24.75 201.42-24.75 201.42-22.8 196.07-22.8 196.07-5.4Q196.07-4 196.57-3.05 197.07-2.1 198.77-2.1L198.77-2.1Q199.47-2.1 200.27-2.18 201.07-2.25 201.42-2.25L201.42-2.25 201.42-0.25Q201.02-0.25 200.02-0.1 199.02 0.05 197.87 0.05ZM205.41 5.85L205.41 5.85Q204.37 5.85 203.54 5.7 202.72 5.55 202.27 5.45L202.27 5.45 202.27 3.6Q202.41 3.7 202.94 3.8 203.47 3.9 204.16 3.9L204.16 3.9Q204.91 3.9 205.84 3.65 206.77 3.4 207.37 2.25L207.37 2.25Q207.66 1.75 208.04 1.1 208.41 0.45 208.22-0.4L208.22-0.4 202.52-24.75 205.72-24.75 210.27-3.15 210.22-3.15 214.62-24.75 217.56-24.75 212.16-0.95Q211.41 2.5 209.81 4.17 208.22 5.85 205.41 5.85ZM223.56 0L220.51 0 220.51-31.7 223.56-31.7 223.56 0ZM231.91 0L228.86 0 228.86-24.75 231.91-24.75 231.91 0ZM230.41-27.8L230.41-27.8Q229.66-27.8 229.14-28.33 228.61-28.85 228.61-29.55L228.61-29.55Q228.61-30.3 229.14-30.78 229.66-31.25 230.41-31.25L230.41-31.25Q231.11-31.25 231.66-30.78 232.21-30.3 232.21-29.55L232.21-29.55Q232.21-28.85 231.66-28.33 231.11-27.8 230.41-27.8ZM240.31 0L237.21 0 237.21-24.75 239.76-24.75 240.16-22.1Q240.56-23.6 242.01-24.4 243.46-25.2 245.01-25.2L245.01-25.2Q247.66-25.2 248.88-24.28 250.11-23.35 250.46-21.88 250.81-20.4 250.81-18.65L250.81-18.65 250.81 0 247.71 0 247.71-18.2Q247.71-19.1 247.66-19.95 247.61-20.8 247.28-21.48 246.96-22.15 246.21-22.55 245.46-22.95 244.01-22.95L244.01-22.95Q242.76-22.95 241.98-22.48 241.21-22 240.83-21.38 240.46-20.75 240.31-20.2L240.31-20.2 240.31 0ZM261.41 5.85L261.41 5.85Q260.86 5.85 260.11 5.8 259.36 5.75 258.63 5.7 257.91 5.65 257.38 5.58 256.86 5.5 256.7 5.45L256.7 5.45 256.7 3.65Q257.31 3.7 258.43 3.85 259.56 4 260.45 4L260.45 4Q261.16 4 262 3.9 262.86 3.8 263.68 3.35 264.5 2.9 265.03 1.85 265.56 0.8 265.56-1.05L265.56-1.05 265.56-4.45Q265.25-3.5 264.63-2.75 264-2 263-1.58 262-1.15 260.56-1.15L260.56-1.15Q259.61-1.15 258.63-1.35 257.66-1.55 256.86-2.18 256.06-2.8 255.58-4.13 255.11-5.45 255.11-7.7L255.11-7.7 255.11-19.05Q255.11-22.35 256.41-23.8 257.7-25.25 260.61-25.25L260.61-25.25Q261.91-25.25 262.98-24.9 264.06-24.55 264.81-23.85 265.56-23.15 265.95-22.1L265.95-22.1 265.41-22.1 265.91-24.75 268.61-24.75 268.61-2.1Q268.61-0.15 268.13 1.33 267.66 2.8 266.75 3.83 265.86 4.85 264.5 5.35 263.16 5.85 261.41 5.85ZM261.66-3.15L261.66-3.15Q263.31-3.15 264.13-3.98 264.95-4.8 265.23-6.08 265.5-7.35 265.5-8.65L265.5-8.65 265.5-20.75Q265.36-21.2 264.93-21.75 264.5-22.3 263.73-22.7 262.95-23.1 261.66-23.1L261.66-23.1Q259.81-23.1 259-22.2 258.2-21.3 258.2-18.9L258.2-18.9 258.2-6.95Q258.2-5.65 258.56-4.85 258.91-4.05 259.48-3.7 260.06-3.35 260.66-3.25 261.25-3.15 261.66-3.15Z" opacity="1" transform="matrix(1,0,0,1,0,0)" fill="#fbfbf8" class="slogan-text-1" data-fill-palette-color="secondary" id="text-1"></path></svg></g></svg></g></svg></g></svg></g><g><svg viewBox="0 0 107.91728183439989 107.91728183439989" height="107.91728183439989" width="107.91728183439989"><g><svg xmlns="http://www.w3.org/2000/svg" viewBox="7.75 7.75 84.5 84.5" x="0" y="0" height="107.91728183439989" width="107.91728183439989" class="icon-icon-0" data-fill-palette-color="accent" id="icon-0"><path class="cls-1" d="M32.25 66.25H9.25A1.5 1.5 0 0 0 7.75 67.75V90.75A1.5 1.5 0 0 0 9.25 92.25H32.25A1.5 1.5 0 0 0 33.75 90.75V67.75A1.5 1.5 0 0 0 32.25 66.25M24.16 89.25H20.72L30.72 79.05V82.46S30.66 82.46 30.63 82.52L24.39 88.9A1.3 1.3 0 0 0 24.16 89.25M10.75 76.37L10.9 76.28 17.81 69.28H21.13L10.75 79.8ZM10.75 84.06H10.8L25 69.58A1.4 1.4 0 0 0 25.21 69.25H28.64L10.75 87.46ZM30.75 71.4V74.81S30.67 74.81 30.64 74.88L16.64 89.14S16.64 89.22 16.57 89.25H13.19ZM13.6 69.25L10.75 72.15V69.25ZM28.25 89.25L30.75 86.71V89.25ZM63 67.75V90.75A1.5 1.5 0 0 1 61.5 92.25H38.5A1.5 1.5 0 0 1 37 90.75V67.75A1.5 1.5 0 0 1 38.5 66.25H61.5A1.5 1.5 0 0 1 63 67.75M92.25 67.75V90.75A1.5 1.5 0 0 1 90.75 92.25H67.75A1.5 1.5 0 0 1 66.25 90.75V67.75A1.5 1.5 0 0 1 67.75 66.25H90.75A1.5 1.5 0 0 1 92.25 67.75M32.25 37H9.25A1.5 1.5 0 0 0 7.75 38.5V61.5A1.5 1.5 0 0 0 9.25 63H32.25A1.5 1.5 0 0 0 33.75 61.5V38.5A1.5 1.5 0 0 0 32.25 37M30.75 60H10.75V40H30.75ZM61.5 37H38.5A1.5 1.5 0 0 0 37 38.5V61.5A1.5 1.5 0 0 0 38.5 63H61.5A1.5 1.5 0 0 0 63 61.5V38.5A1.5 1.5 0 0 0 61.5 37M53.41 60H50L60 49.8V53.21L59.91 53.27 53.64 59.65A1.3 1.3 0 0 0 53.41 60M40 47.12A1 1 0 0 0 40.15 47.03L47.06 40.03H50.38L40 50.55ZM40 54.81L54.26 40.33A1.4 1.4 0 0 0 54.47 40H57.9L40 58.21ZM60 42.15V45.56S59.92 45.56 59.89 45.63L45.89 59.89S45.89 59.97 45.82 60H42.44ZM42.85 40L40 42.9V40ZM57.5 60L60 57.46V60ZM92.25 38.5V61.5A1.5 1.5 0 0 1 90.75 63H67.75A1.5 1.5 0 0 1 66.25 61.5V38.5A1.5 1.5 0 0 1 67.75 37H90.75A1.5 1.5 0 0 1 92.25 38.5M32.25 7.75H9.25A1.5 1.5 0 0 0 7.75 9.25V32.25A1.5 1.5 0 0 0 9.25 33.75H32.25A1.5 1.5 0 0 0 33.75 32.25V9.25A1.5 1.5 0 0 0 32.25 7.75M30.75 30.75H10.75V10.75H30.75ZM61.5 7.75H38.5A1.5 1.5 0 0 0 37 9.25V32.25A1.5 1.5 0 0 0 38.5 33.75H61.5A1.5 1.5 0 0 0 63 32.25V9.25A1.5 1.5 0 0 0 61.5 7.75M60 30.75H40V10.75H60ZM90.75 7.75H67.75A1.5 1.5 0 0 0 66.25 9.25V32.25A1.5 1.5 0 0 0 67.75 33.75H90.75A1.5 1.5 0 0 0 92.25 32.25V9.25A1.5 1.5 0 0 0 90.75 7.75M82.6 30.75H79.19L89.25 20.52V24C89.19 24.05 89.11 24.07 89.06 24.13L82.79 30.51A1.4 1.4 0 0 0 82.6 30.75M69.25 17.88L76.16 10.88A0.2 0.2 0 0 0 76.16 10.82H79.6L69.25 21.27ZM69.25 25.55L83.41 11.15A1.7 1.7 0 0 0 83.67 10.75H87.12L69.25 28.92ZM89.25 12.87V16.31A1.5 1.5 0 0 0 89.04 16.45L75 30.71H71.66ZM72.07 10.75L69.25 13.61V10.75ZM86.72 30.75L89.25 28.17V30.75Z" fill="#ffff00" data-fill-palette-color="accent"></path></svg></g></svg></g></svg></g><defs></defs></svg><rect width="395.52" height="83.14199862437772" fill="none" stroke="none" visibility="hidden"></rect></g></svg></g></svg>
