<?xml version="1.0" standalone="no"?>
<!DOCTYPE svg PUBLIC "-//W3C//DTD SVG 20010904//EN"
 "http://www.w3.org/TR/2001/REC-SVG-20010904/DTD/svg10.dtd">
<svg version="1.0" xmlns="http://www.w3.org/2000/svg"
 width="4500.000000pt" height="4500.000000pt" viewBox="0 0 4500.000000 4500.000000"
 preserveAspectRatio="xMidYMid meet">

<g transform="translate(0.000000,4500.000000) scale(0.100000,-0.100000)"
fill="#000000" stroke="none">
<path d="M25800 34914 c-14 -2 -65 -9 -115 -15 -112 -14 -223 -46 -389 -111
-318 -125 -812 -413 -1009 -589 -57 -50 -57 -50 -94 -38 -21 6 -71 27 -112 46
-41 18 -76 31 -78 29 -8 -8 58 -123 94 -166 22 -25 62 -53 110 -76 l76 -37
111 7 c97 6 235 23 349 42 l38 7 -44 -69 c-115 -178 -216 -432 -238 -598 -26
-202 40 -503 157 -713 20 -35 62 -99 93 -141 l56 -77 -1 -145 c0 -106 -5 -163
-18 -210 -25 -93 -72 -175 -120 -211 l-41 -31 62 5 c71 6 153 40 205 86 32 28
37 30 42 14 3 -10 71 -303 150 -651 l146 -633 -47 -92 c-202 -404 -490 -611
-911 -656 -182 -20 -315 -13 -273 14 34 20 74 211 63 300 l-5 48 -20 -53 c-26
-70 -96 -141 -162 -164 -69 -24 -199 -31 -291 -16 -58 9 -88 20 -123 45 -192
136 -422 169 -584 83 -72 -39 -107 -78 -156 -176 -54 -109 -74 -191 -74 -292
1 -129 32 -227 120 -377 l28 -48 5 60 5 59 17 -26 c10 -15 54 -51 98 -80 44
-29 80 -57 80 -63 0 -5 -20 -87 -44 -181 l-43 -171 39 -144 c112 -408 290
-770 493 -1000 27 -30 33 -46 38 -105 6 -82 51 -210 102 -294 20 -33 39 -61
43 -64 4 -2 6 53 5 122 l-3 127 23 -66 c42 -118 111 -196 225 -257 59 -31 162
-75 162 -68 0 2 -25 55 -55 117 -30 63 -55 117 -55 121 0 10 25 1 91 -33 82
-42 174 -60 286 -57 l95 3 -51 42 -52 41 53 6 c29 3 91 8 138 11 434 31 837
143 1338 372 78 36 145 63 148 61 2 -3 49 -455 103 -1004 84 -842 100 -1038
105 -1249 27 -1041 132 -1880 342 -2728 30 -120 54 -220 54 -223 0 -2 -24 -19
-52 -38 l-53 -33 -65 22 c-461 157 -1192 573 -2066 1173 -147 101 -269 181
-271 178 -7 -6 -38 -131 -80 -314 -24 -102 -42 -161 -49 -158 -11 4 -254 171
-548 376 -87 61 -159 110 -161 108 -2 -2 -41 -88 -88 -193 -46 -104 -110 -244
-140 -310 -78 -168 -207 -456 -207 -460 0 -3 176 -160 264 -235 16 -14 43 -38
60 -53 57 -52 359 -292 501 -399 389 -291 719 -498 1085 -682 536 -268 958
-389 1405 -403 271 -8 478 19 696 91 91 30 103 32 149 22 27 -6 53 -16 58 -21
11 -11 293 -745 417 -1085 110 -298 240 -706 310 -965 61 -227 146 -587 140
-594 -12 -11 -526 336 -794 536 -134 101 -246 183 -250 183 -5 0 -37 -55 -74
-123 -36 -68 -108 -196 -161 -285 -93 -156 -96 -163 -96 -222 0 -76 35 -183
96 -299 25 -47 41 -88 37 -92 -4 -4 -117 -59 -250 -123 l-242 -115 -143 65
c-1734 797 -3389 1193 -4741 1134 -139 -6 -287 -14 -330 -18 -43 -5 -80 -6
-82 -3 -3 2 -5 278 -5 613 l0 608 27 0 c41 0 2616 -128 2714 -135 l85 -6 37
203 c20 112 52 286 72 388 19 102 35 186 35 188 0 2 92 2 205 0 l206 -3 9 35
c5 19 27 109 50 200 22 91 43 173 46 183 5 16 -283 17 -5955 17 -3279 0 -5961
-3 -5961 -7 0 -5 11 -48 23 -98 l23 -90 51 -3 c43 -3 52 -6 56 -25 3 -12 27
-114 53 -227 25 -113 47 -206 48 -207 1 -1 327 -18 726 -38 399 -19 731 -38
738 -40 9 -3 12 -694 12 -3408 l0 -3404 -56 -124 c-31 -68 -116 -266 -190
-439 -74 -173 -146 -338 -159 -366 -33 -69 -265 -645 -308 -765 l-35 -96 58
-87 c107 -160 212 -263 355 -349 61 -36 238 -109 295 -122 l30 -7 0 -591 c0
-326 3 -649 7 -719 l6 -128 284 0 283 0 0 1069 0 1069 121 294 c67 161 145
352 174 423 68 168 180 420 311 703 121 260 455 925 484 962 19 25 20 23 20
-337 l0 -362 -34 -148 c-61 -265 -145 -704 -191 -1003 -29 -184 -75 -534 -75
-567 0 -33 85 -86 200 -124 182 -59 335 -52 740 37 l216 47 18 171 c16 156 50
452 76 666 19 148 88 558 129 765 160 801 365 1446 642 2013 166 342 329 605
533 862 94 119 465 500 486 500 7 0 10 -1168 10 -3520 l0 -3520 290 0 291 0
-7 3709 -7 3709 62 31 c86 44 256 112 386 156 l110 37 190 -1 c190 -1 435 -19
617 -47 54 -7 101 -14 105 -14 3 0 4 -1499 0 -3330 l-6 -3331 122 3 122 3 -4
3296 c-2 1813 -1 3301 2 3306 17 27 644 -131 1114 -281 650 -207 1291 -454
2722 -1048 l604 -251 321 -185 c177 -101 326 -187 331 -192 14 -11 473 45 785
96 318 52 673 132 901 204 l92 29 -6 -132 c-4 -73 -18 -222 -32 -331 -48 -385
-26 -534 85 -567 120 -36 255 122 339 396 58 189 86 359 103 631 l12 191 104
52 c57 28 109 48 115 45 7 -4 9 -3 4 1 -10 11 130 88 145 79 7 -5 8 -3 3 6 -6
10 -4 12 9 7 9 -4 15 -3 12 2 -4 5 29 29 71 54 l78 46 530 5 c292 3 545 7 563
9 17 2 37 0 44 -4 14 -9 43 19 43 43 0 19 12 25 23 12 4 -4 1 -4 -7 1 -10 5
-12 4 -7 -4 9 -15 11 -14 141 94 286 236 639 513 860 673 77 56 146 107 152
112 7 6 129 88 270 183 538 360 921 563 1294 686 52 17 106 33 119 36 12 2 46
11 74 19 104 30 247 47 391 47 188 0 323 -30 471 -103 108 -53 193 -119 300
-230 188 -197 352 -506 469 -882 35 -111 122 -436 129 -481 10 -60 19 -96 26
-100 4 -2 5 -15 3 -27 -4 -19 0 -23 20 -23 15 0 23 5 20 12 -3 7 -9 11 -13 8
-5 -3 -3 6 3 19 14 29 15 28 20 -5 l4 -24 244 4 c134 2 249 7 256 13 7 6 14 5
18 -2 3 -5 10 -10 14 -10 11 0 2 72 -9 84 -5 5 -6 15 -3 24 4 10 2 13 -5 8 -8
-4 -10 -2 -6 8 7 18 -60 276 -121 465 -136 422 -340 823 -549 1086 -275 344
-639 575 -1031 654 -308 62 -654 45 -1027 -49 -602 -153 -1308 -517 -2077
-1070 l-143 -102 -66 7 c-108 11 -416 64 -562 97 -497 112 -992 303 -1480 574
l-135 75 -23 112 c-129 624 -298 1153 -724 2260 -71 186 -128 340 -126 341 1
2 50 -3 108 -11 58 -7 130 -12 160 -11 l55 3 8 55 c4 30 11 58 16 63 12 12 19
-54 27 -253 4 -96 10 -183 13 -192 5 -13 44 24 165 158 88 96 163 171 166 167
4 -5 13 -127 19 -273 7 -146 14 -289 18 -319 l6 -53 193 193 194 194 2 -180
c1 -99 3 -189 4 -200 1 -11 2 -72 3 -135 l1 -115 195 195 195 195 0 -297 c0
-163 3 -304 6 -313 5 -13 47 23 184 160 l177 177 6 -153 c4 -84 7 -209 7 -278
l0 -126 178 178 c97 97 181 177 185 177 4 0 7 -120 7 -266 l0 -266 184 221
c134 161 186 216 189 204 3 -10 18 -147 33 -305 16 -159 31 -288 34 -288 3 0
43 60 90 133 215 336 213 333 221 312 5 -11 36 -141 69 -290 33 -148 64 -278
68 -288 6 -15 39 30 156 213 82 127 150 229 153 226 2 -2 31 -122 64 -267 33
-145 61 -265 63 -266 1 -1 69 101 150 227 82 127 152 233 156 235 11 7 9 13
70 -260 28 -126 53 -231 54 -233 2 -1 43 90 91 203 48 113 92 205 96 205 5 0
10 -19 10 -42 1 -41 2 -40 15 22 55 270 118 727 150 1090 22 252 30 976 15
1248 -62 1074 -282 2028 -681 2947 -82 189 -280 574 -390 760 -319 537 -696
1011 -1126 1417 -214 201 -320 281 -483 362 -80 41 -293 116 -328 116 -12 0
-28 6 -36 14 -15 15 -631 326 -645 326 -5 0 -29 -15 -54 -34 l-44 -34 -302
347 c-166 190 -301 351 -300 356 0 6 44 45 97 89 125 102 396 375 492 496 95
118 190 254 249 353 25 42 48 77 51 77 3 0 13 -26 23 -57 30 -94 82 -199 151
-304 35 -54 66 -99 69 -99 2 0 -7 27 -21 60 -38 96 -63 225 -70 365 -6 131 3
325 15 325 4 0 26 -31 50 -68 84 -133 260 -310 372 -376 29 -17 28 -14 -20 45
-120 149 -208 346 -260 581 -27 120 -25 124 15 39 45 -93 129 -222 184 -281
l42 -45 -31 64 c-44 89 -105 277 -131 401 -32 157 -30 256 8 435 39 179 66
358 90 595 25 252 25 893 0 1105 -79 658 -250 1172 -532 1595 -197 297 -433
503 -767 670 -75 38 -147 75 -160 84 -71 45 -392 128 -628 161 -109 16 -618
30 -680 19z m285 -3019 c139 -36 263 -151 345 -317 59 -123 87 -235 97 -382
l6 -110 -39 31 c-21 17 -54 36 -73 42 -73 24 -175 7 -224 -37 -14 -13 -33 -16
-76 -14 -71 4 -108 -18 -148 -85 -23 -40 -28 -59 -28 -118 0 -58 5 -78 27
-117 15 -25 43 -56 61 -67 23 -14 38 -34 47 -62 19 -57 83 -143 125 -169 19
-12 33 -26 29 -31 -3 -5 -32 -23 -63 -39 -239 -120 -502 -3 -641 285 -60 123
-73 188 -72 375 0 222 40 390 140 585 27 53 63 105 87 127 108 100 259 139
400 103z m163 -4014 c18 -24 20 -39 16 -92 -2 -35 -11 -149 -19 -254 -8 -104
-20 -278 -26 -385 -6 -107 -14 -213 -18 -234 -4 -25 -22 132 -50 446 -24 267
-41 491 -37 497 9 15 77 50 97 51 8 0 25 -13 37 -29z m376 -446 l235 -280 -26
-28 c-27 -27 -27 -30 -39 -245 -9 -155 -18 -239 -33 -294 -47 -181 -46 -442 4
-714 47 -254 105 -465 324 -1182 113 -367 231 -792 231 -827 0 -13 -16 -70
-36 -127 -130 -375 -288 -694 -443 -896 -66 -86 -157 -179 -167 -170 -9 10
-91 346 -134 556 -177 853 -250 1647 -250 2707 0 558 12 886 56 1525 16 244
21 278 34 264 4 -5 114 -135 244 -289z m2116 -634 c108 -36 187 -80 277 -154
60 -48 173 -178 173 -198 0 -5 -33 17 -72 50 -182 148 -358 209 -578 198 -139
-7 -233 -31 -350 -93 -159 -84 -280 -208 -361 -369 -66 -134 -90 -231 -92
-370 -2 -157 36 -306 110 -432 36 -63 11 -52 -41 16 -66 85 -121 192 -152 296
-25 81 -28 105 -27 240 0 134 3 160 27 240 41 135 98 233 195 337 134 143 253
216 419 258 63 16 104 19 227 17 138 -3 158 -6 245 -36z m-1340 -4633 c0 -10
2 -10 9 0 7 11 9 11 14 -1 4 -11 -1 -14 -19 -12 -21 2 -22 0 -12 -13 10 -13
10 -14 0 -8 -7 4 -15 1 -18 -9 -6 -14 -8 -14 -20 2 -13 16 -13 15 -4 -10 7
-19 7 -26 0 -22 -6 3 -13 -1 -16 -9 -3 -9 -13 -16 -21 -16 -7 0 -13 -6 -11
-13 2 -7 -39 -54 -90 -105 -50 -51 -92 -97 -92 -102 0 -6 -7 -10 -15 -10 -8 0
-15 -8 -15 -19 0 -10 -8 -21 -19 -24 -10 -2 -25 -17 -32 -33 -8 -15 -27 -35
-44 -44 -16 -9 -37 -30 -45 -46 -8 -16 -30 -44 -47 -62 -18 -19 -30 -38 -27
-43 3 -5 -1 -6 -9 -3 -8 3 -21 -6 -31 -20 -9 -15 -23 -26 -31 -26 -7 0 -17 -9
-20 -20 -3 -11 -11 -20 -16 -20 -5 0 -9 -7 -9 -15 0 -9 -8 -19 -17 -22 -10 -4
-28 -17 -40 -30 -13 -12 -23 -27 -23 -33 0 -6 -8 -14 -17 -17 -29 -11 -65 -52
-57 -65 5 -8 2 -9 -10 -5 -14 6 -16 3 -11 -14 5 -15 3 -20 -6 -17 -7 2 -23 -9
-34 -25 -19 -28 -64 -50 -48 -24 3 7 -4 3 -16 -8 -21 -18 -37 -20 -170 -20
-129 0 -151 3 -193 22 -134 62 -112 201 62 388 185 199 476 377 805 495 193
69 415 110 415 78z m-12085 -1418 c248 -12 465 -23 483 -26 l32 -5 0 -1870 0
-1870 -105 -145 c-294 -401 -593 -885 -885 -1429 -62 -115 -115 -212 -116
-214 -2 -2 -4 1255 -4 2794 l0 2797 73 -6 c39 -3 275 -15 522 -26z m2080 -105
c606 -30 1120 -55 1143 -55 l42 0 0 -813 0 -814 -112 -33 c-505 -148 -1012
-407 -1461 -747 -251 -191 -574 -492 -787 -733 -46 -52 -88 -96 -92 -98 -10
-4 -11 3342 -1 3352 4 4 43 4 88 1 44 -3 575 -30 1180 -60z m2520 -126 c363
-17 670 -32 683 -35 l22 -4 -2 -633 -3 -632 -150 -28 c-130 -24 -190 -29 -450
-37 -300 -9 -589 -30 -763 -54 -51 -7 -95 -10 -97 -7 -8 7 -6 1457 2 1464 4 4
27 5 52 2 25 -3 343 -19 706 -36z m7331 -3575 c19 -9 44 -31 57 -48 21 -30 22
-40 21 -219 -1 -183 -2 -188 -25 -213 -47 -50 -65 -54 -264 -54 l-185 0 0 275
0 275 181 0 c146 0 188 -3 215 -16z m7537 -281 c-13 -2 -33 -2 -45 0 -13 2 -3
4 22 4 25 0 35 -2 23 -4z m-5929 -38 c-10 -8 -23 -15 -28 -15 -6 0 -1 7 10 15
10 8 23 15 28 15 6 0 1 -7 -10 -15z m63 -21 c-3 -3 -12 -4 -19 -1 -8 3 -5 6 6
6 11 1 17 -2 13 -5z m-817 -438 c0 -260 -79 -642 -171 -831 -36 -74 -99 -155
-120 -155 -38 0 -42 202 -9 440 12 85 24 236 27 335 l6 180 121 46 c66 26 127
47 134 48 8 1 12 -18 12 -63z m-11839 -751 c-32 -83 -73 -193 -91 -245 -18
-52 -37 -99 -42 -104 -4 -6 -8 36 -8 93 0 116 -11 90 118 294 41 65 76 116 78
114 2 -1 -23 -70 -55 -152z"/>
<path d="M26516 21224 c-5 -14 -4 -15 9 -4 17 14 19 20 6 20 -5 0 -12 -7 -15
-16z"/>
<path d="M26910 16685 l0 -195 165 0 165 0 0 195 0 195 -165 0 -165 0 0 -195z"/>
<path d="M23152 32383 c-6 -136 -10 -248 -9 -249 4 -4 851 -23 855 -19 2 2
-21 72 -52 155 -61 168 -101 231 -173 279 -71 47 -129 60 -297 66 -83 3 -187
7 -232 10 l-80 5 -12 -247z"/>
<path d="M23375 31611 c13 -72 129 -291 154 -291 13 0 121 191 121 214 0 11
-6 32 -13 46 -11 22 -25 26 -140 46 l-129 21 7 -36z"/>
<path d="M14176 29545 c-98 -39 -185 -76 -192 -81 -12 -7 0 -88 61 -449 42
-242 317 -1884 612 -3650 l536 -3210 4 -182 4 -183 3624 0 3625 0 0 220 0 220
-145 0 -144 0 -3 83 -3 82 -3090 0 -3090 0 -3 -76 -3 -76 -132 -6 c-72 -4
-134 -3 -138 1 -7 8 -1220 7178 -1219 7208 0 31 -9 35 -42 18 -17 -9 -32 -14
-34 -11 -2 2 -9 30 -14 63 -16 89 -20 104 -28 103 -4 -1 -88 -34 -186 -74z"/>
<path d="M28764 16569 c-8 -14 14 -19 25 -6 8 10 7 14 -5 14 -8 0 -17 -4 -20
-8z"/>
<path d="M34675 16561 c-3 -5 -2 -12 3 -15 5 -3 9 1 9 9 0 17 -3 19 -12 6z"/>
<path d="M29463 13637 c-39 -34 -70 -67 -68 -74 2 -7 -2 -10 -9 -7 -8 3 -17 0
-22 -7 -4 -7 -3 -10 4 -5 6 3 14 2 17 -4 5 -8 11 -7 21 1 13 10 13 8 5 -15 -6
-14 -9 -26 -8 -26 2 0 28 36 58 81 29 44 60 89 68 100 20 29 13 24 -66 -44z"/>
<path d="M15608 11885 c-59 -22 -86 -44 -109 -91 -25 -54 -21 -101 16 -172
135 -262 645 -421 807 -252 44 47 55 96 34 163 -16 52 -89 157 -110 157 -8 0
-22 -50 -41 -155 -18 -98 -33 -155 -40 -155 -17 0 -418 150 -429 161 -5 5 0
77 13 176 12 92 21 171 21 176 0 12 -123 6 -162 -8z"/>
<path d="M13160 11356 c-106 -23 -198 -82 -221 -143 -15 -41 -10 -111 12 -156
27 -54 119 -142 192 -186 147 -87 388 -137 547 -113 141 20 245 82 271 160 23
69 -11 170 -79 235 l-29 28 -43 -106 c-24 -58 -47 -105 -51 -105 -11 0 -502
149 -507 154 -2 3 16 57 42 121 25 63 46 117 46 120 0 9 -125 3 -180 -9z"/>
</g>
</svg>
