<?xml version="1.0" standalone="no"?>
<!DOCTYPE svg PUBLIC "-//W3C//DTD SVG 20010904//EN"
 "http://www.w3.org/TR/2001/REC-SVG-20010904/DTD/svg10.dtd">
<svg version="1.0" xmlns="http://www.w3.org/2000/svg"
 width="2000.000000pt" height="2000.000000pt" viewBox="0 0 2000.000000 2000.000000"
 preserveAspectRatio="xMidYMid meet">

<g transform="translate(0.000000,2000.000000) scale(0.100000,-0.100000)"
fill="#000000" stroke="none">
<path d="M6600 15430 c-249 -34 -495 -126 -700 -260 -274 -180 -403 -338 -451
-548 -6 -26 -12 -137 -13 -247 -4 -277 -9 -289 -212 -537 -122 -149 -156 -198
-197 -286 -30 -63 -32 -74 -32 -177 0 -104 2 -114 32 -175 18 -36 61 -112 97
-169 84 -136 94 -170 68 -237 -11 -27 -23 -85 -27 -129 -4 -44 -16 -131 -26
-193 -31 -183 -23 -270 32 -388 46 -97 212 -252 245 -228 6 5 50 40 96 77 101
83 196 147 306 205 l82 44 41 -37 c95 -85 258 -178 424 -240 78 -29 103 -35
117 -26 13 8 16 8 12 -3 -4 -9 17 -17 78 -29 220 -44 437 -46 666 -7 336 58
528 148 716 338 l89 90 81 -28 c45 -15 112 -40 150 -55 56 -22 70 -25 77 -14
20 31 31 90 36 189 8 162 -33 307 -134 473 -56 92 -53 121 33 298 l69 144 0
90 c0 88 -1 94 -47 185 -72 146 -80 212 -53 440 47 394 -8 616 -212 860 -237
282 -572 482 -940 560 -112 24 -394 35 -503 20z m972 -1021 c29 -7 76 -22 104
-34 48 -21 53 -27 97 -116 108 -220 155 -460 144 -744 -9 -238 -53 -428 -140
-600 -82 -164 -171 -268 -304 -355 -108 -71 -171 -85 -383 -85 -145 1 -190 5
-262 23 -114 28 -233 74 -294 114 -27 17 -72 47 -100 65 -121 78 -259 217
-346 346 l-26 39 -94 2 c-137 2 -215 43 -274 141 -56 96 -52 202 12 261 49 47
112 65 254 74 192 11 230 37 309 205 40 83 58 110 110 158 107 99 199 136 366
147 66 5 142 16 168 26 63 22 146 102 185 180 37 74 85 109 190 140 87 26 199
31 284 13z m-79 -1913 c40 -31 306 -149 410 -183 42 -14 77 -28 77 -32 0 -3
-13 -20 -30 -37 -16 -18 -28 -33 -27 -35 1 -2 0 -3 -2 -1 -9 5 -50 -42 -44
-51 3 -6 1 -7 -4 -4 -6 4 -28 -7 -48 -23 -21 -17 -53 -40 -72 -51 -18 -11 -30
-26 -27 -31 4 -6 2 -8 -3 -5 -6 4 -48 -11 -94 -32 -208 -97 -512 -150 -794
-138 -242 10 -436 56 -621 147 -104 52 -269 164 -260 178 3 5 33 17 68 26 35
10 95 27 133 38 39 11 107 35 153 55 l82 35 43 -25 c104 -61 263 -91 406 -76
200 20 449 118 567 224 27 24 50 44 52 45 2 0 18 -11 35 -24z"/>
<path d="M7450 13991 c-66 -24 -113 -70 -108 -109 4 -37 29 -39 98 -8 64 29
94 32 151 14 50 -15 89 1 89 35 0 67 -127 104 -230 68z"/>
<path d="M6698 13910 c-73 -22 -135 -89 -127 -135 6 -29 36 -30 88 -2 63 34
100 40 155 26 39 -10 50 -9 71 5 43 28 29 86 -26 105 -37 13 -121 13 -161 1z"/>
<path d="M7440 13655 c-48 -51 -34 -210 23 -250 32 -23 63 -18 99 14 32 29 33
31 33 113 l0 83 -31 -3 c-36 -4 -59 18 -51 48 8 30 -43 27 -73 -5z"/>
<path d="M6706 13601 c-39 -43 -44 -148 -10 -213 34 -66 109 -74 144 -16 22
36 34 115 25 156 -5 26 -10 29 -43 28 -35 -1 -37 1 -40 32 -3 28 -7 32 -31 32
-15 0 -36 -8 -45 -19z"/>
<path d="M5807 13393 c-18 -17 -4 -43 33 -64 44 -25 47 -31 25 -49 -24 -20
-18 -66 11 -89 35 -27 57 -26 90 3 55 47 21 142 -66 186 -39 20 -81 26 -93 13z"/>
<path d="M7190 13335 c-19 -7 -54 -11 -76 -8 -49 6 -61 -6 -33 -35 41 -45 169
-24 169 27 0 26 -18 30 -60 16z"/>
<path d="M7424 13113 c-17 -10 -73 -15 -230 -20 -175 -4 -216 -3 -254 10 -24
9 -46 15 -48 13 -9 -10 13 -81 39 -121 29 -46 29 -46 58 -30 37 18 100 39 168
55 59 13 114 7 187 -22 36 -14 52 -16 62 -8 18 16 46 93 42 118 -3 18 -5 18
-24 5z"/>
<path d="M15269 12088 c-70 -81 -245 -315 -365 -488 -211 -303 -337 -551 -394
-774 -32 -125 -22 -132 15 -11 70 229 164 419 329 670 81 122 129 190 288 405
48 65 159 201 185 228 13 13 23 27 23 32 0 23 -23 5 -81 -62z"/>
<path d="M8310 11200 c0 -18 28 -139 37 -160 3 -8 7 -25 9 -38 1 -13 28 -121
58 -240 56 -221 86 -369 86 -427 0 -24 -6 -34 -24 -43 -14 -6 -32 -22 -41 -35
-11 -17 -358 -1425 -432 -1754 -7 -32 -18 -29 -70 17 -46 40 -63 48 -63 31 0
-11 70 -100 93 -120 15 -12 15 -46 0 -73 -2 -4 -42 22 -89 58 -109 82 -157 89
-65 10 19 -17 59 -54 89 -81 l54 -50 -14 -53 -13 -52 -75 61 c-103 84 -147
112 -165 105 -8 -3 -15 -9 -15 -13 0 -4 54 -53 120 -108 113 -94 119 -102 114
-130 -8 -41 -15 -46 -67 -52 -42 -5 -53 0 -154 60 -172 103 -260 142 -313 140
-66 -3 -336 -22 -405 -28 -62 -6 -353 -34 -415 -40 -19 -2 -73 -6 -120 -10
-140 -10 -142 -11 -138 -53 l3 -37 805 -163 805 -162 605 11 605 10 115 46
c379 149 1020 333 1390 399 191 34 384 38 495 10 207 -51 383 -208 410 -366 7
-39 9 -41 38 -37 30 3 33 7 48 73 61 254 124 520 154 644 64 267 148 614 160
670 7 30 52 217 99 415 48 198 103 424 122 503 40 168 41 181 12 212 l-21 23
-336 -7 c-1262 -26 -2911 -56 -3038 -56 -84 0 -153 -4 -153 -9 0 -5 -15 -5
-32 -2 l-33 7 -7 79 c-8 77 -30 174 -117 490 -63 234 -88 316 -100 328 -8 8
-11 7 -11 -3z"/>
<path d="M15505 11075 c-291 -199 -596 -502 -875 -871 -80 -104 -140 -201
-140 -223 0 -9 12 4 27 29 56 96 338 439 503 613 147 155 358 333 532 451 32
21 55 42 52 47 -8 14 -15 11 -99 -46z"/>
<path d="M5930 11048 c-23 -38 -97 -257 -134 -398 -62 -231 -126 -633 -126
-784 0 -81 -4 -80 -76 21 -25 35 -48 62 -51 59 -9 -9 56 -139 98 -193 28 -38
44 -51 57 -47 14 5 15 4 2 -5 -32 -23 211 -223 452 -372 180 -112 405 -232
419 -223 7 4 9 3 6 -3 -7 -11 121 -74 228 -113 33 -13 63 -25 67 -29 4 -4 -19
-70 -51 -147 -56 -135 -146 -380 -155 -427 -3 -12 -13 -43 -23 -68 l-18 -45
-130 18 c-273 39 -575 131 -844 259 -129 61 -176 75 -132 38 13 -11 31 -17 38
-15 8 3 12 2 9 -2 -3 -5 41 -31 97 -59 265 -131 573 -227 887 -276 95 -15 110
-13 110 13 0 9 7 34 16 55 11 28 19 35 32 30 9 -4 49 -18 87 -30 l70 -23 7 21
c10 33 38 304 45 445 5 108 4 124 -11 135 -15 11 -15 15 4 52 11 21 20 42 20
46 0 8 -200 105 -207 101 -3 -2 -9 0 -12 5 -12 16 -123 63 -134 57 -7 -4 -9
-3 -4 1 4 5 -44 35 -105 68 -291 152 -578 349 -712 485 l-48 50 11 84 c6 45
15 133 21 193 26 260 107 634 190 883 40 117 49 172 30 172 -6 0 -19 -15 -30
-32z"/>
<path d="M13370 10843 c0 -6 40 -27 89 -47 98 -41 180 -88 258 -147 84 -65
240 -227 316 -330 40 -52 82 -109 94 -125 42 -55 23 -5 -23 63 -106 155 -286
344 -414 435 -68 48 -246 142 -293 153 -15 4 -27 3 -27 -2z"/>
<path d="M15249 10014 c-247 -189 -481 -459 -638 -734 -57 -100 -96 -180 -87
-180 2 0 35 53 72 118 176 304 388 550 656 763 85 67 104 89 77 89 -4 0 -40
-25 -80 -56z"/>
<path d="M13557 9913 c-3 -5 38 -44 90 -88 120 -101 243 -236 388 -425 22 -28
68 -86 101 -129 34 -42 71 -92 83 -111 27 -45 27 -31 0 23 -28 55 -99 148
-109 142 -4 -3 -7 2 -6 9 1 16 -133 188 -242 309 -103 116 -296 286 -305 270z"/>
<path d="M13130 7008 c0 -6 -364 -2119 -410 -2378 -27 -157 -55 -316 -61 -355
-14 -90 -136 -804 -195 -1139 -28 -158 -43 -273 -39 -292 8 -47 65 -94 113
-94 40 0 95 28 110 57 5 10 24 83 41 163 18 80 93 417 167 750 74 333 164 736
199 895 186 840 489 2201 506 2273 31 136 54 122 -206 122 -124 0 -225 -1
-225 -2z"/>
<path d="M14584 6963 c7 -52 169 -1740 187 -1938 6 -66 44 -469 85 -895 41
-426 83 -864 93 -973 21 -215 28 -236 85 -264 45 -21 95 -11 132 28 28 30 29
32 27 132 -2 100 -38 912 -68 1512 -22 446 -115 2396 -115 2423 l0 22 -216 0
-216 0 6 -47z"/>
<path d="M15860 6996 c0 -8 99 -460 220 -1003 122 -543 230 -1031 240 -1084
11 -52 49 -226 85 -385 101 -449 279 -1247 329 -1477 25 -114 53 -221 61 -237
19 -37 62 -60 111 -60 29 0 44 8 75 39 42 42 48 73 29 156 -5 22 -29 162 -55
310 -25 149 -62 362 -81 475 -20 113 -73 426 -119 695 -149 871 -435 2529
-441 2558 l-6 27 -224 0 c-189 0 -224 -2 -224 -14z"/>
<path d="M7455 6803 c-81 -29 -92 -37 -78 -55 5 -7 51 -92 101 -188 134 -258
202 -386 202 -380 0 3 -13 52 -30 110 -23 81 -102 418 -122 521 -3 15 -11 14
-73 -8z"/>
<path d="M6413 6330 c-83 -18 -156 -140 -108 -180 22 -19 43 -5 61 40 12 30
29 48 63 67 52 30 61 41 54 59 -6 17 -32 22 -70 14z"/>
<path d="M9430 6055 c-16 -19 -3 -40 35 -58 18 -9 36 -25 40 -37 8 -24 33 -23
48 1 18 28 -13 69 -65 89 -38 14 -49 15 -58 5z"/>
<path d="M10355 5974 c-66 -35 -183 -91 -260 -125 -77 -34 -142 -63 -144 -65
-2 -2 32 -42 75 -90 279 -305 393 -467 394 -555 0 -67 -63 -116 -137 -107 -28
3 -46 -2 -72 -19 -24 -16 -48 -23 -82 -23 -55 0 -99 -17 -99 -37 0 -8 123
-384 274 -836 151 -452 313 -942 360 -1090 95 -290 116 -332 190 -371 49 -25
141 -32 191 -16 50 16 114 75 136 125 10 22 19 63 19 91 0 29 -31 183 -69 350
-38 165 -113 490 -166 724 -93 410 -140 614 -301 1310 -41 179 -98 429 -126
555 -28 127 -54 233 -57 236 -3 3 -60 -23 -126 -57z"/>
<path d="M7975 5889 c-10 -30 0 -33 13 -4 6 14 7 25 2 25 -5 0 -12 -9 -15 -21z"/>
<path d="M4695 5810 c-8 -29 -183 -789 -286 -1240 -38 -168 -102 -442 -140
-610 -40 -172 -71 -329 -72 -360 -1 -134 109 -229 251 -218 57 5 118 40 155
89 19 26 165 458 516 1527 100 304 184 559 187 566 3 9 -5 16 -22 20 -61 16
-337 129 -456 188 l-127 63 -6 -25z"/>
<path d="M8870 5473 c-91 -19 -166 -36 -168 -38 -4 -3 115 -368 420 -1284 265
-796 266 -799 338 -836 115 -59 262 8 288 132 13 57 13 56 -92 513 -157 683
-216 938 -246 1063 l-30 127 -111 133 c-143 169 -199 227 -219 226 -8 -1 -89
-17 -180 -36z"/>
<path d="M6234 5055 c-56 -67 -75 -75 -185 -87 -86 -9 -105 -8 -146 7 -56 20
-127 32 -233 41 -41 4 -92 15 -112 25 -35 18 -37 18 -42 1 -19 -65 -88 -361
-191 -822 -24 -107 -91 -400 -149 -650 -253 -1099 -248 -1076 -236 -1135 15
-70 58 -127 122 -159 119 -60 259 -14 318 104 9 19 97 278 195 575 97 297 275
835 395 1195 270 813 312 941 306 947 -2 2 -21 -16 -42 -42z"/>
</g>
</svg>
