<svg xmlns="http://www.w3.org/2000/svg" version="1.1" xmlns:xlink="http://www.w3.org/1999/xlink" xmlns:svgjs="http://svgjs.dev/svgjs" width="128" height="128" viewBox="0 0 128 128"><g transform="matrix(0.8046875,0,0,0.8046875,12.23946240853639,12.23946240853639)"><svg viewBox="0 0 96 96" data-background-color="#010536" preserveAspectRatio="xMidYMid meet" height="128" width="128" xmlns="http://www.w3.org/2000/svg" xmlns:xlink="http://www.w3.org/1999/xlink"><g id="tight-bounds" transform="matrix(1,0,0,1,0.25950000000000273,0.25950000000000273)"><svg viewBox="0 0 95.481 95.481" height="95.481" width="95.481"><g><svg viewBox="0 0 95.481 95.481" height="95.481" width="95.481"><g><svg viewBox="0 0 95.481 95.481" height="95.481" width="95.481"><g id="textblocktransform"><svg viewBox="0 0 95.481 95.481" height="95.481" width="95.481" id="textblock"><g><svg viewBox="0 0 95.481 95.481" height="95.481" width="95.481"><g><svg viewBox="0 0 95.481 95.481" height="95.481" width="95.481"><g><svg xmlns="http://www.w3.org/2000/svg" viewBox="7.75 7.75 84.5 84.5" x="0" y="0" height="95.481" width="95.481" class="icon-icon-0" data-fill-palette-color="accent" id="icon-0"><path class="cls-1" d="M32.25 66.25H9.25A1.5 1.5 0 0 0 7.75 67.75V90.75A1.5 1.5 0 0 0 9.25 92.25H32.25A1.5 1.5 0 0 0 33.75 90.75V67.75A1.5 1.5 0 0 0 32.25 66.25M24.16 89.25H20.72L30.72 79.05V82.46S30.66 82.46 30.63 82.52L24.39 88.9A1.3 1.3 0 0 0 24.16 89.25M10.75 76.37L10.9 76.28 17.81 69.28H21.13L10.75 79.8ZM10.75 84.06H10.8L25 69.58A1.4 1.4 0 0 0 25.21 69.25H28.64L10.75 87.46ZM30.75 71.4V74.81S30.67 74.81 30.64 74.88L16.64 89.14S16.64 89.22 16.57 89.25H13.19ZM13.6 69.25L10.75 72.15V69.25ZM28.25 89.25L30.75 86.71V89.25ZM63 67.75V90.75A1.5 1.5 0 0 1 61.5 92.25H38.5A1.5 1.5 0 0 1 37 90.75V67.75A1.5 1.5 0 0 1 38.5 66.25H61.5A1.5 1.5 0 0 1 63 67.75M92.25 67.75V90.75A1.5 1.5 0 0 1 90.75 92.25H67.75A1.5 1.5 0 0 1 66.25 90.75V67.75A1.5 1.5 0 0 1 67.75 66.25H90.75A1.5 1.5 0 0 1 92.25 67.75M32.25 37H9.25A1.5 1.5 0 0 0 7.75 38.5V61.5A1.5 1.5 0 0 0 9.25 63H32.25A1.5 1.5 0 0 0 33.75 61.5V38.5A1.5 1.5 0 0 0 32.25 37M30.75 60H10.75V40H30.75ZM61.5 37H38.5A1.5 1.5 0 0 0 37 38.5V61.5A1.5 1.5 0 0 0 38.5 63H61.5A1.5 1.5 0 0 0 63 61.5V38.5A1.5 1.5 0 0 0 61.5 37M53.41 60H50L60 49.8V53.21L59.91 53.27 53.64 59.65A1.3 1.3 0 0 0 53.41 60M40 47.12A1 1 0 0 0 40.15 47.03L47.06 40.03H50.38L40 50.55ZM40 54.81L54.26 40.33A1.4 1.4 0 0 0 54.47 40H57.9L40 58.21ZM60 42.15V45.56S59.92 45.56 59.89 45.63L45.89 59.89S45.89 59.97 45.82 60H42.44ZM42.85 40L40 42.9V40ZM57.5 60L60 57.46V60ZM92.25 38.5V61.5A1.5 1.5 0 0 1 90.75 63H67.75A1.5 1.5 0 0 1 66.25 61.5V38.5A1.5 1.5 0 0 1 67.75 37H90.75A1.5 1.5 0 0 1 92.25 38.5M32.25 7.75H9.25A1.5 1.5 0 0 0 7.75 9.25V32.25A1.5 1.5 0 0 0 9.25 33.75H32.25A1.5 1.5 0 0 0 33.75 32.25V9.25A1.5 1.5 0 0 0 32.25 7.75M30.75 30.75H10.75V10.75H30.75ZM61.5 7.75H38.5A1.5 1.5 0 0 0 37 9.25V32.25A1.5 1.5 0 0 0 38.5 33.75H61.5A1.5 1.5 0 0 0 63 32.25V9.25A1.5 1.5 0 0 0 61.5 7.75M60 30.75H40V10.75H60ZM90.75 7.75H67.75A1.5 1.5 0 0 0 66.25 9.25V32.25A1.5 1.5 0 0 0 67.75 33.75H90.75A1.5 1.5 0 0 0 92.25 32.25V9.25A1.5 1.5 0 0 0 90.75 7.75M82.6 30.75H79.19L89.25 20.52V24C89.19 24.05 89.11 24.07 89.06 24.13L82.79 30.51A1.4 1.4 0 0 0 82.6 30.75M69.25 17.88L76.16 10.88A0.2 0.2 0 0 0 76.16 10.82H79.6L69.25 21.27ZM69.25 25.55L83.41 11.15A1.7 1.7 0 0 0 83.67 10.75H87.12L69.25 28.92ZM89.25 12.87V16.31A1.5 1.5 0 0 0 89.04 16.45L75 30.71H71.66ZM72.07 10.75L69.25 13.61V10.75ZM86.72 30.75L89.25 28.17V30.75Z" fill="#ffff00" data-fill-palette-color="accent"></path></svg></g></svg></g></svg></g></svg></g></svg></g></svg></g><defs></defs></svg><rect width="95.481" height="95.481" fill="none" stroke="none" visibility="hidden"></rect></g></svg></g></svg>
